# xmcd CD database file
#
# Track frame offsets:
#	150
#	18476
#	37172
#	55191
#	73004
#	89095
#	106153
#	123603
#	144007
#	159777
#	177316
#	191961
#
# Disc length: 2833 seconds
#
# Revision: 1
# Processed by: cddbd v1.5.2PL0 Copyright (c) Steve Scherf et al.
# Submitted via: CDex 1.70beta2
#
DISCID=a70b0f0c
DTITLE=Downhere - On The Altar Of Love
DYEAR=2011
DGENRE=CCM Canada 2011-2020
TTITLE0=Only The Beginning - Jason Germain, Marc Martel
TTITLE1=Rest - Jason Germain, Marc Martel
TTITLE2=Let Me Rediscover You - Jason Germain, Marc Martel
TTITLE3=For Life - Jason Germain, Marc Martel
TTITLE4=Living The Dream - Jason Germain, Marc Martel
TTITLE5=Seek - Jason Germain, Marc Martel
TTITLE6=Glory By The Way Of Shame - Jason Germain, Marc Martel
TTITLE7=Holy - Jason Germain, Marc Martel
TTITLE8=For The Heartbreak - Jason Germain, Marc Martel
TTITLE9=Turn This Around - Jason Germain, Marc Martel
TTITLE10=The Altar Of Love - Jason Germain, Marc Martel
TTITLE11=Reveal The Kingdom - Jason Germain, Marc Martel
EXTD=YEAR: 2011
EXTT0=
EXTT1=
EXTT2=
EXTT3=
EXTT4=
EXTT5=
EXTT6=
EXTT7=
EXTT8=
EXTT9=
EXTT10=
EXTT11=
PLAYORDER=
